# Blender v2.79 (sub 0) OBJ File: ''
# www.blender.org
mtllib player.mtl
o Icosphere_Icosphere.001
v 0.000000 -1.000000 0.000000
v 0.723600 -0.447215 0.525720
v -0.276385 -0.447215 0.850640
v -1.548600 -0.447215 0.000000
v -0.276385 -0.447215 -0.850640
v 0.723600 -0.447215 -0.525720
v 0.276385 0.447215 0.850640
v -0.723600 0.447215 0.525720
v -0.723600 0.447215 -0.525720
v 0.276385 0.447215 -0.850640
v 2.125537 0.447215 0.000000
v 0.000000 1.000000 0.000000
vn 0.1876 -0.7947 0.5774
vn 0.6071 -0.7947 0.0000
vn -0.3004 -0.8414 0.4492
vn -0.3004 -0.8414 -0.4492
vn 0.1876 -0.7947 -0.5774
vn 0.5379 -0.8430 0.0000
vn 0.3035 -0.1876 0.9342
vn -0.5557 0.0241 0.8311
vn -0.5557 0.0241 -0.8311
vn 0.3035 -0.1876 -0.9342
vn 0.4149 -0.1202 0.9019
vn -0.3035 0.1876 0.9342
vn -0.7351 0.6780 0.0000
vn -0.3035 0.1876 -0.9342
vn 0.4149 -0.1202 -0.9019
vn 0.2208 0.8490 0.4800
vn -0.1876 0.7947 0.5774
vn -0.6071 0.7947 0.0000
vn -0.1876 0.7947 -0.5774
vn 0.2208 0.8490 -0.4800
usemtl None
s off
f 1//1 2//1 3//1
f 2//2 1//2 6//2
f 1//3 3//3 4//3
f 1//4 4//4 5//4
f 1//5 5//5 6//5
f 2//6 6//6 11//6
f 3//7 2//7 7//7
f 4//8 3//8 8//8
f 5//9 4//9 9//9
f 6//10 5//10 10//10
f 2//11 11//11 7//11
f 3//12 7//12 8//12
f 4//13 8//13 9//13
f 5//14 9//14 10//14
f 6//15 10//15 11//15
f 7//16 11//16 12//16
f 8//17 7//17 12//17
f 9//18 8//18 12//18
f 10//19 9//19 12//19
f 11//20 10//20 12//20
